HIERARCHY
ROOT ui
{
	 OFFSET 0 0 0
	 CHANNELS 3 XPosition YPosition Z Position
	 EndSite
	 {
	 OFFSET 0 -1 0
	 }
}
ROOT li
{
	 OFFSET 0 0 0
	 CHANNELS 3 XPosition YPosition Z Position
	 EndSite
	 {
	 OFFSET 0 -1 0
	 }
}
ROOT ul
{
	 OFFSET 0 0 0
	 CHANNELS 3 XPosition YPosition Z Position
	 EndSite
	 {
	 OFFSET 0 -1 0
	 }
}
ROOT ll
{
	 OFFSET 0 0 0
	 CHANNELS 3 XPosition YPosition Z Position
	 EndSite
	 {
	 OFFSET 0 -1 0
	 }
}
ROOT tt
{
	 OFFSET 0 0 0
	 CHANNELS 3 XPosition YPosition Z Position
	 EndSite
	 {
	 OFFSET 0 -1 0
	 }
}
ROOT tb
{
	 OFFSET 0 0 0
	 CHANNELS 3 XPosition YPosition Z Position
	 EndSite
	 {
	 OFFSET 0 -1 0
	 }
}
ROOT td
{
	 OFFSET 0 0 0
	 CHANNELS 3 XPosition YPosition Z Position
	 EndSite
	 {
	 OFFSET 0 -1 0
	 }
}
ROOT v
{
	 OFFSET 0 0 0
	 CHANNELS 3 XPosition YPosition Z Position
	 EndSite
	 {
	 OFFSET 0 -1 0
	 }
}
ROOT bn
{
	 OFFSET 0 0 0
	 CHANNELS 3 XPosition YPosition Z Position
	 EndSite
	 {
	 OFFSET 0 -1 0
	 }
}
MOTION
Frames: 10
Frame Time: 0.002
0.012796626091003419	7.515079975128174E-4	0		0.3915454406738281	-2.325885498046875	0		-1.091288818359375	0.006784224033355713	0		-0.8916881713867187	-2.273431640625	0		1.3436483154296874	-0.4396796875	0		2.9806015625	0.06723012542724609	0		4.4598291015625	0.17007112121582033	0		5.52098779296875	0.010828302383422852	0		-0.11533296203613282	5.927267578125	0		
-0.06248220825195312	0.0032799649238586426	0		0.3585498046875	-2.315136962890625	0		-1.0886009521484374	0.006774221897125244	0		-0.8519276733398438	-2.276134033203125	0		1.346359130859375	-0.4395643310546875	0		3.01937451171875	0.07174494171142579	0		4.46250830078125	0.17034689331054687	0		5.5195244140625	0.003236145973205566	0		-0.11294997406005859	5.9273076171875	0		
0.01912375259399414	-0.007174233913421631	0		0.3972597961425781	-2.32575537109375	0		-1.085810546875	0.0067642579078674315	0		-0.8781700439453125	-2.283581298828125	0		1.349171875	-0.4394532165527344	0		3.01103125	0.06514891052246094	0		4.45429248046875	0.17082136535644532	0		5.5264658203125	0.01147751235961914	0		-0.11045384979248046	5.92734619140625	0		
-0.05683735275268555	0.0033592839241027832	0		0.3582122802734375	-2.325901611328125	0		-1.0729771728515625	0.0055653672218322755	0		-0.87315185546875	-2.280619873046875	0		1.35510302734375	-0.4364058532714844	0		3.03614306640625	0.07891348266601562	0		4.4661181640625	0.16990229797363282	0		5.52931982421875	0.011778866767883301	0		-0.10787866973876953	5.92738232421875	0		
0.027069517135620117	0.003866127014160156	0		0.4073024291992188	-2.32071728515625	0		-1.0678677978515625	0.017515798568725587	0		-0.8739039306640625	-2.2665478515625	0		1.3580057373046874	-0.43630963134765627	0		3.005652099609375	0.05970889282226562	0		4.464146484375	0.1782271270751953	0		5.53220263671875	0.012057226181030273	0		-0.10623455810546875	5.92843310546875	0		
-0.051070774078369144	0.0034237790107727053	0		0.41706887817382815	-2.331799072265625	0		-1.0731156005859375	0.01065747356414795	0		-0.7922652587890625	-2.285033935546875	0		1.37882763671875	-0.44056207275390624	0		3.046770751953125	0.07214205169677734	0		4.4780205078125	0.1782281799316406	0		5.545083984375	0.012119215965270996	0		-0.23699444580078124	5.9079677734375	0		
0.02975270462036133	9.822310209274291E-4	0		0.4091209716796875	-2.3255537109375	0		-1.0702598876953124	0.010645151138305664	0		-0.8741265869140625	-2.273441650390625	0		1.3607216796875	-0.4390946044921875	0		3.017630126953125	0.07287448120117188	0		4.47673974609375	0.17148585510253905	0		5.53379150390625	0.004602108955383301	0		-0.11612101745605469	5.91876611328125	0		
-0.04848378372192383	-4.8167499899864197E-4	0		0.4031492004394531	-2.317358154296875	0		-1.0715289306640625	0.0067038931846618655	0		-0.8342955932617188	-2.276146240234375	0		1.3604661865234375	-0.4429803466796875	0		3.031562744140625	0.07977491760253906	0		4.48438916015625	0.1635460205078125	0		5.54074658203125	0.012710515975952148	0		-0.09831143188476563	5.9284951171875	0		
0.04512163162231445	-0.00818226146697998	0		0.37278244018554685	-2.32572412109375	0		-1.1315596923828124	0.019856353759765626	0		-0.854515380859375	-2.276734130859375	0		1.369341796875	-0.4360536804199219	0		3.026883544921875	0.05799497985839844	0		4.4843623046875	0.17672407531738282	0		5.54347998046875	0.01286307144165039	0		-0.09379355621337891	5.92545947265625	0		
-0.02614874839782715	-0.0028085799217224122	0		0.4324698181152344	-2.326791748046875	0		-1.0498760986328124	0.02134074020385742	0		-0.8467266235351563	-2.271859375	0		1.379142333984375	-0.428163818359375	0		3.061892333984375	0.07745488739013671	0		4.49388623046875	0.17069094848632813	0		5.55025146484375	0.019909124374389648	0		-0.09323725128173828	5.9284833984375	0		
